<!DOCTYPE svg PUBLIC "-//W3C//DTD SVG 1.1//EN" "http://www.w3.org/Graphics/SVG/1.1/DTD/svg11.dtd">
<!-- Uploaded to: SVG Repo, www.svgrepo.com, Transformed by: SVG Repo Mixer Tools -->
<svg width="800px" height="800px" viewBox="0 0 1024 1024" class="icon" version="1.1" xmlns="http://www.w3.org/2000/svg" fill="#000000">
<g id="SVGRepo_bgCarrier" stroke-width="0"/>
<g id="SVGRepo_tracerCarrier" stroke-linecap="round" stroke-linejoin="round"/>
<g id="SVGRepo_iconCarrier">
<path d="M363.477333 709.866667l41.045334-11.733334 42.666666 149.333334-41.045333 11.733333zM576.853333 847.488l42.602667-149.333333 41.045333 11.690666-42.602666 149.333334z" fill="#E6E6E6"/>
<path d="M512 21.333333v725.333334h126.997333a21.333333 21.333333 0 0 0 18.026667-9.92C698.069333 672 832 452.096 832 341.333333c0-176.448-143.552-320-320-320zM192 341.333333c0 110.762667 133.930667 330.666667 174.976 395.413334a21.333333 21.333333 0 0 0 18.026667 9.92H512V21.333333C335.552 21.333333 192 164.885333 192 341.333333z" fill="#335262"/>
<path d="M597.333333 1002.666667h-170.666666a21.333333 21.333333 0 0 1-21.333334-21.333334v-128a21.333333 21.333333 0 0 1 21.333334-21.333333h170.666666a21.333333 21.333333 0 0 1 21.333334 21.333333v128a21.333333 21.333333 0 0 1-21.333334 21.333334z" fill="#487dd2"/>
<path d="M277.333333 341.333333c0 128 132.970667 405.333333 132.970667 405.333334H512V21.333333c-129.6 0-234.666667 143.274667-234.666667 320zM746.666667 341.333333c0-176.725333-105.066667-320-234.666667-320v725.333334h101.696S746.666667 469.333333 746.666667 341.333333z" fill="#487dd2"/>
<path d="M465.770667 746.666667h92.458666S618.666667 469.333333 618.666667 341.333333c0-176.725333-47.765333-320-106.666667-320s-106.666667 143.274667-106.666667 320c0 128 60.437333 405.333333 60.437334 405.333334z" fill="#335262"/>
<path d="M618.666667 874.666667H405.333333a21.333333 21.333333 0 1 1 0-42.666667h213.333334a21.333333 21.333333 0 0 1 0 42.666667z" fill="#487dd2"/>
</g>
</svg>