<!DOCTYPE svg PUBLIC "-//W3C//DTD SVG 1.1//EN" "http://www.w3.org/Graphics/SVG/1.1/DTD/svg11.dtd">
<!-- Uploaded to: SVG Repo, www.svgrepo.com, Transformed by: SVG Repo Mixer Tools -->
<svg height="800px" width="800px" version="1.1" id="Capa_1" xmlns="http://www.w3.org/2000/svg" xmlns:xlink="http://www.w3.org/1999/xlink" viewBox="0 0 512.002 512.002" xml:space="preserve" fill="#000000">
<g id="SVGRepo_bgCarrier" stroke-width="0"/>
<g id="SVGRepo_tracerCarrier" stroke-linecap="round" stroke-linejoin="round"/>
<g id="SVGRepo_iconCarrier"> <g> <g> <path style="fill:#487DD2;" d="M195.853,218.475l-27.621-27.621c-78.606,83.308-127.15,186.664-135.246,288.16 c101.496-8.096,204.852-56.64,288.16-135.247l-27.621-27.621c-15.633,12.673-32.992,21.639-50.113,25.59 c-6.66,1.535-13.086,2.297-19.199,2.297c-16.215,0-30.234-5.336-40.57-15.672c-0.004-0.004-0.004-0.004-0.004-0.004 c-14.234-14.234-18.984-35.461-13.375-59.769C174.214,251.467,183.179,234.109,195.853,218.475z"/> <path style="fill:#FFFFFF;" d="M201.443,275.784c-1.758,7.625-3.469,21.652,4.824,29.945c0,0.004,0,0.004,0.004,0.004 c8.285,8.293,22.328,6.582,29.945,4.824c11.348-2.619,23.408-8.7,34.537-17.182l-52.129-52.128 C210.142,252.375,204.062,264.436,201.443,275.784z"/> <path style="fill:#487DD2;" d="M479.017,32.983c-101.496,8.096-204.852,56.64-288.16,135.247l27.621,27.621 c15.633-12.673,32.992-21.639,50.113-25.59c24.32-5.605,45.539-0.859,59.773,13.379c14.234,14.23,18.984,35.457,13.375,59.77 c-3.951,17.122-12.916,34.479-25.59,50.113l27.621,27.621C422.376,237.835,470.921,134.478,479.017,32.983z"/> <path style="fill:#FFFFFF;" d="M310.56,236.213c1.758-7.625,3.469-21.652-4.824-29.945c-4.848-4.852-11.656-6.281-17.996-6.281 c-4.512,0-8.785,0.723-11.953,1.453c-11.348,2.619-23.408,8.7-34.537,17.182l52.129,52.128 C301.861,259.622,307.941,247.561,310.56,236.213z"/> </g> <path style="fill:#003B54;" d="M418.243,379.706c-5.094-4.247-12.096-4.754-17.699-1.789l-34.164-34.164 c88.809-93.832,141.742-212.203,145.613-327.216c0.148-4.43-1.547-8.719-4.68-11.852c-3.133-3.137-7.473-4.758-11.852-4.68 C380.448,3.878,262.079,56.811,168.247,145.619l-34.164-34.164c2.965-5.6,2.461-12.6-1.789-17.699l-40-48 c-2.879-3.453-7.078-5.539-11.566-5.742c-4.449-0.223-8.863,1.492-12.039,4.672l-24,24c-3.18,3.176-4.875,7.547-4.672,12.039 c0.203,4.488,2.289,8.688,5.742,11.566l48,40c2.977,2.48,6.613,3.707,10.238,3.707c2.578,0,5.125-0.694,7.453-1.926l34.172,34.171 C56.814,262.076,3.88,380.446,0.009,495.46c-0.148,4.43,1.547,8.719,4.68,11.852c3.004,3.008,7.074,4.688,11.312,4.688 c0.18,0,0.359-0.004,0.539-0.008c115.014-3.872,233.383-56.805,327.215-145.612l34.164,34.164c-2.965,5.6-2.461,12.6,1.789,17.699 l40,48c2.879,3.453,7.078,5.539,11.566,5.742c0.242,0.012,0.484,0.016,0.727,0.016c4.234,0,8.309-1.68,11.313-4.688l24-24 c3.18-3.176,4.875-7.547,4.672-12.039c-0.203-4.488-2.289-8.688-5.742-11.566L418.243,379.706z M479.017,32.983 c-8.096,101.495-56.641,204.852-135.246,288.16l-27.621-27.621c12.674-15.634,21.639-32.992,25.59-50.113 c5.609-24.313,0.859-45.539-13.375-59.77c-14.234-14.238-35.453-18.984-59.773-13.379c-17.121,3.951-34.48,12.916-50.113,25.59 l-27.621-27.621C274.165,89.623,377.521,41.079,479.017,32.983z M201.443,275.784c2.619-11.348,8.699-23.409,17.182-34.537 l52.129,52.128c-11.129,8.482-23.189,14.563-34.537,17.182c-7.617,1.758-21.66,3.469-29.945-4.824c-0.004,0-0.004,0-0.004-0.004 C197.974,297.436,199.685,283.409,201.443,275.784z M241.249,218.622c11.129-8.482,23.189-14.563,34.537-17.182 c3.168-0.73,7.441-1.453,11.953-1.453c6.34,0,13.148,1.43,17.996,6.281c8.293,8.293,6.582,22.32,4.824,29.945 c-2.619,11.348-8.699,23.409-17.182,34.537L241.249,218.622z M32.986,479.014c8.096-101.495,56.641-204.852,135.246-288.16 l27.621,27.621c-12.674,15.634-21.639,32.992-25.59,50.113c-5.609,24.309-0.859,45.535,13.375,59.769c0,0,0,0,0.004,0.004 c10.336,10.336,24.355,15.672,40.57,15.672c6.113,0,12.539-0.762,19.199-2.297c17.121-3.951,34.48-12.917,50.113-25.59 l27.621,27.621C237.837,422.374,134.482,470.918,32.986,479.014z"/> </g> </g>
</svg>