<!DOCTYPE svg PUBLIC "-//W3C//DTD SVG 1.1//EN" "http://www.w3.org/Graphics/SVG/1.1/DTD/svg11.dtd">
<!-- Uploaded to: SVG Repo, www.svgrepo.com, Transformed by: SVG Repo Mixer Tools -->
<svg fill="#487DD2" height="800px" width="800px" version="1.1" id="Layer_1" xmlns="http://www.w3.org/2000/svg" xmlns:xlink="http://www.w3.org/1999/xlink" viewBox="0 0 512 512" xml:space="preserve">
<g id="SVGRepo_bgCarrier" stroke-width="0"/>
<g id="SVGRepo_tracerCarrier" stroke-linecap="round" stroke-linejoin="round"/>
<g id="SVGRepo_iconCarrier"> <g> <g> <g> <path d="M97.379,255.292c-3.157,3.157-3.157,8.275,0,11.433l0.762,0.762c1.579,1.578,3.649,2.367,5.717,2.367 s4.138-0.789,5.717-2.367c3.157-3.157,3.157-8.275,0-11.433l-0.762-0.762C105.656,252.136,100.537,252.136,97.379,255.292z"/> <path d="M153.159,245.916l-5.47,12.31c-1.789,4.026-5.794,6.628-10.201,6.628h-9.436c-4.466,0-8.084,3.619-8.084,8.084 s3.619,8.084,8.084,8.084h9.436c10.792,0,20.594-6.371,24.976-16.232l5.47-12.308c1.814-4.08-0.024-8.857-4.105-10.67 C159.752,239.998,154.971,241.834,153.159,245.916z"/> <path d="M200.224,237.833c-4.079-1.814-8.857,0.023-10.67,4.105l-13.13,29.541c-6.112,13.749-19.782,22.633-34.827,22.633 h-22.644c-21.015,0-38.111-17.096-38.111-38.111s17.096-38.111,38.111-38.111h63.522c2.202,0,4.343,0.625,6.191,1.808 c3.763,2.406,8.762,1.305,11.166-2.454c2.405-3.762,1.306-8.761-2.454-11.166c-4.455-2.85-9.608-4.355-14.903-4.355h-63.522 c-29.93-0.001-54.28,24.347-54.28,54.278s24.35,54.28,54.28,54.28h22.644c21.427,0,40.897-12.652,49.601-32.234l13.13-29.541 C206.142,244.424,204.304,239.647,200.224,237.833z"/> <path d="M393.047,201.72h-63.521c-5.296,0-10.449,1.505-14.904,4.355c-3.761,2.405-4.86,7.404-2.454,11.166 c2.406,3.761,7.404,4.861,11.166,2.454c1.849-1.182,3.99-1.808,6.193-1.808h63.521c21.015,0,38.111,17.096,38.111,38.111 s-17.096,38.111-38.111,38.111h-22.643c-15.046,0-28.716-8.884-34.827-22.633l-13.13-29.541c-1.813-4.08-6.588-5.919-10.67-4.105 c-4.08,1.814-5.918,6.59-4.105,10.67l13.13,29.541c8.702,19.582,28.172,32.234,49.601,32.234h22.643 c29.931,0,54.28-24.35,54.28-54.28C447.326,226.068,422.977,201.72,393.047,201.72z"/> <path d="M493.137,226.358h-18.905c-11.985-31.473-42.476-53.895-78.105-53.895h-74.109c-16.942,0-32.699,8.158-42.514,21.658 c-0.64-0.067-1.289-0.1-1.946-0.1h-43.116c-0.658,0-1.305,0.033-1.946,0.1c-9.815-13.501-25.572-21.658-42.513-21.658h-74.11 c-35.63,0-66.12,22.421-78.105,53.895H18.863C8.463,226.358,0,234.82,0,245.221v21.558c0,10.401,8.463,18.863,18.863,18.863 h18.905c11.985,31.473,42.476,53.895,78.105,53.895h26.418c32.979,0,62.944-19.472,76.335-49.609l1.905-4.286h70.935l1.905,4.286 c13.393,30.137,43.357,49.609,76.336,49.609h26.418c35.63,0,66.12-22.421,78.105-53.895h18.905 c10.401,0,18.863-8.463,18.863-18.863v-21.558C512,234.82,503.537,226.358,493.137,226.358z M33.423,269.474h-14.56 c-1.486,0-2.695-1.208-2.695-2.695v-21.558c0-1.486,1.208-2.695,2.695-2.695h14.56c-0.715,4.386-1.087,8.888-1.087,13.474 S32.709,265.088,33.423,269.474z M207.953,274.138c-0.043,0.093-0.085,0.186-0.124,0.28l-3.975,8.943 c-10.801,24.303-34.965,40.007-61.562,40.007h-26.418c-37.148,0-67.368-30.221-67.368-67.368 c0-37.147,30.221-67.368,67.368-67.368h74.11c11.29,0,21.82,5.233,28.656,13.963c-1.935,2.961-3.06,6.497-3.06,10.29v21.558 c0,4.688,1.718,8.981,4.558,12.283L207.953,274.138z M231.747,212.884c0-0.919,0.462-1.732,1.166-2.218 c0.113-0.064,0.223-0.128,0.332-0.196c0.361-0.18,0.767-0.281,1.196-0.281h43.116c0.429,0,0.835,0.101,1.196,0.281 c0.109,0.068,0.22,0.133,0.332,0.196c0.704,0.487,1.166,1.299,1.166,2.218v21.558c0,1.048-0.599,1.957-1.475,2.403 c-0.043,0.019-0.085,0.037-0.127,0.056c-0.044,0.02-0.088,0.04-0.132,0.06c-0.3,0.113-0.624,0.177-0.961,0.177h-43.116 c-0.338,0-0.663-0.064-0.961-0.177c-0.043-0.021-0.087-0.04-0.131-0.06c-0.042-0.019-0.084-0.037-0.127-0.056 c-0.874-0.446-1.475-1.355-1.475-2.403V212.884z M227.719,269.474l7.186-16.168h42.189l7.186,16.168H227.719z M396.126,323.368 h-26.418c-26.596,0-50.76-15.704-61.563-40.006l-3.956-8.902c-0.051-0.122-0.103-0.242-0.161-0.361l-12.166-27.374 c2.84-3.303,4.558-7.595,4.558-12.283v-21.558c0-3.793-1.125-7.329-3.06-10.29c6.836-8.73,17.366-13.963,28.657-13.963h74.109 c37.147,0,67.368,30.221,67.368,67.368C463.495,293.147,433.274,323.368,396.126,323.368z M495.832,266.779 c0,1.486-1.208,2.695-2.695,2.695h-14.56c0.715-4.386,1.086-8.888,1.086-13.474s-0.372-9.088-1.086-13.474h14.56 c1.486,0,2.695,1.208,2.695,2.695V266.779z"/> <path d="M413.858,267.487l0.762-0.762c3.157-3.158,3.157-8.276,0-11.433c-3.158-3.156-8.276-3.156-11.433,0l-0.762,0.762 c-3.157,3.158-3.157,8.276,0,11.433c1.579,1.578,3.649,2.367,5.717,2.367C410.21,269.854,412.279,269.065,413.858,267.487z"/> <path d="M374.513,281.022h9.435c4.466,0,8.084-3.618,8.084-8.084c0-4.466-3.618-8.084-8.084-8.084h-9.435 c-4.407,0-8.413-2.602-10.202-6.629l-5.47-12.309c-1.814-4.079-6.594-5.919-10.67-4.105c-4.08,1.814-5.918,6.59-4.105,10.67 l5.47,12.308C353.919,274.651,363.723,281.022,374.513,281.022z"/> </g> </g> </g> </g>
</svg>