<?xml version="1.0" standalone="no"?>
<!DOCTYPE svg PUBLIC "-//W3C//DTD SVG 20010904//EN"
 "http://www.w3.org/TR/2001/REC-SVG-20010904/DTD/svg10.dtd">
<svg version="1.0" xmlns="http://www.w3.org/2000/svg"
 width="512.000000pt" height="512.000000pt" viewBox="0 0 512.000000 512.000000"
 preserveAspectRatio="xMidYMid meet">

<g transform="translate(0.000000,512.000000) scale(0.100000,-0.100000)"
fill="#000000" stroke="none">
<path d="M643 5106 c-92 -30 -157 -89 -200 -181 l-28 -60 -3 -562 c-2 -343 1
-563 6 -563 5 0 15 7 22 16 21 24 117 95 200 146 97 60 207 113 323 152 l92
32 3 355 c3 379 -2 445 -43 514 -33 57 -92 111 -150 136 -61 27 -164 34 -222
15z"/>
<path d="M1256 3909 c-415 -62 -793 -334 -985 -708 -96 -189 -138 -344 -148
-547 -18 -387 118 -737 391 -1009 197 -196 416 -315 686 -372 132 -27 392 -25
529 5 195 44 337 107 511 227 132 91 198 115 317 115 118 0 192 -28 329 -120
267 -181 528 -259 829 -246 362 14 668 153 917 415 339 356 453 859 302 1326
-128 393 -472 729 -879 859 -200 64 -98 60 -1480 62 -693 1 -1287 -2 -1319 -7z
m2616 -446 c279 -79 500 -264 617 -515 65 -138 76 -191 75 -368 -1 -139 -4
-164 -28 -245 -93 -306 -334 -542 -641 -627 -67 -18 -106 -22 -235 -22 -140 1
-164 3 -245 28 -102 31 -222 91 -311 157 -66 49 -179 107 -259 134 -155 52
-355 60 -506 21 -126 -32 -186 -61 -315 -149 -136 -92 -208 -129 -321 -164
-80 -24 -103 -27 -248 -27 -145 0 -168 3 -248 27 -338 104 -586 380 -646 721
-16 86 -13 231 5 326 66 349 349 638 699 714 60 13 238 14 1300 13 l1230 -2
77 -22z"/>
<path d="M1315 3265 c-250 -55 -445 -231 -520 -469 -105 -328 48 -679 363
-836 90 -45 174 -63 292 -64 170 -1 281 38 453 158 269 187 567 252 872 190
160 -33 294 -92 460 -204 164 -111 267 -145 435 -144 191 1 341 64 481 204
143 142 202 285 203 485 1 184 -56 323 -187 461 -86 91 -182 152 -307 196
l-95 33 -1195 2 c-965 1 -1207 -1 -1255 -12z"/>
<path d="M420 1388 c0 -70 28 -214 60 -310 91 -271 264 -495 508 -655 113 -75
194 -110 432 -188 l205 -68 50 -53 c31 -33 73 -64 110 -81 l60 -28 325 0 c321
0 326 0 378 24 66 30 153 122 177 188 23 62 33 365 15 457 -22 110 -76 185
-172 237 l-63 34 -335 0 c-321 0 -337 -1 -381 -21 -26 -12 -64 -38 -86 -58
l-40 -36 -114 39 c-141 47 -199 76 -272 136 -51 41 -69 49 -160 70 -230 53
-443 155 -616 293 -31 25 -62 49 -68 55 -10 7 -13 -1 -13 -35z"/>
</g>
</svg>
